# xmcd CD database file
#
# Track frame offsets:
#	150
#	18681
#	36958
#	57983
#	77506
#	96725
#	121016
#	137449
#	160565
#	179845
#	201178
#	220236
#	239586
#	255281
#	272854
#	283141
#
# Disc length: 4117 seconds
#
# Revision: 0
# Processed by: cddbd v1.5.2PL0 Copyright (c) Steve Scherf et al.
# Submitted via: CDex 1.70beta2
#
DISCID=ec101310
DTITLE=Nina and Jensens Jazz Serenaders - Lonesome And Sorry
DYEAR=2006
DGENRE=Jazz
TTITLE0=Let The Four Winds Blow
TTITLE1=Winter Wonderland
TTITLE2=Kid Thomas Boogie
TTITLE3=Lonesome And Sorry
TTITLE4=Over The Waves
TTITLE5=I'm Confessin'
TTITLE6=I Can't Escape From You
TTITLE7=Red Sails In The Sunset
TTITLE8=South Of The Border
TTITLE9=Autumn Leaves
TTITLE10=Rum And Coca Cola
TTITLE11=Lover
TTITLE12=Laughin' Samba
TTITLE13=True
TTITLE14=Up Jumped The Devil
TTITLE15=Sail Along Silvery Moon
EXTD=YEAR: 2006
EXTT0=
EXTT1=
EXTT2=
EXTT3=
EXTT4=
EXTT5=
EXTT6=
EXTT7=
EXTT8=
EXTT9=
EXTT10=
EXTT11=
EXTT12=
EXTT13=
EXTT14=
EXTT15=
PLAYORDER=
